<svg xmlns="http://www.w3.org/2000/svg" width="348" height="219" viewBox="0 0 348 219"><defs><mask id="hr69b" width="2" height="2" x="-1" y="-1"><path fill="#fff" d="M38 36h268v139H38z"/><path d="M46 52h94c7.256 0 14.611-16 22-16 7.656 0 15.347 16 23 16h113a8 8 0 0 1 8 8v107a8 8 0 0 1-8 8H46a8 8 0 0 1-8-8V60a8 8 0 0 1 8-8z"/></mask><filter id="hr69a" width="370.5" height="243.3" x="-12" y="-14" filterUnits="userSpaceOnUse"><feOffset dx="2.5" dy="4.3" in="SourceGraphic" result="FeOffset1023Out"/><feGaussianBlur in="FeOffset1023Out" result="FeGaussianBlur1024Out" stdDeviation="16 16"/></filter></defs><g><g><g filter="url(#hr69a)"><path fill="none" d="M46 52h94c7.256 0 14.611-16 22-16 7.656 0 15.347 16 23 16h113a8 8 0 0 1 8 8v107a8 8 0 0 1-8 8H46a8 8 0 0 1-8-8V60a8 8 0 0 1 8-8z" mask="url(&quot;#hr69b&quot;)"/><path fill-opacity=".21" d="M46 52h94c7.256 0 14.611-16 22-16 7.656 0 15.347 16 23 16h113a8 8 0 0 1 8 8v107a8 8 0 0 1-8 8H46a8 8 0 0 1-8-8V60a8 8 0 0 1 8-8z"/></g><path fill="#fff" d="M46 52h94c7.256 0 14.611-16 22-16 7.656 0 15.347 16 23 16h113a8 8 0 0 1 8 8v107a8 8 0 0 1-8 8H46a8 8 0 0 1-8-8V60a8 8 0 0 1 8-8z"/></g></g></svg>